<svg width="282" height="102" viewBox="0 0 282 102" fill="none" xmlns="http://www.w3.org/2000/svg">
<path d="M207.603 72C208.501 69.1107 209 66.0221 209 62.9336C209 38.1255 178.967 18 142.05 18C105.033 18 75 38.1255 75 62.9336C75 66.0221 75.4989 69.1107 76.3969 72H207.603Z" fill="#2ECC71"/>
<path d="M194.632 34C193.834 33.2994 193.036 32.6987 192.238 31.9981C191.439 33.2994 190.541 34.4004 189.544 35.5015C184.954 40.2059 178.069 42.2078 171.284 40.306C165.198 38.6044 160.608 34 158.812 28.2946C159.112 35.3013 165.697 40.5062 172.382 42.308C178.867 44.1096 188.346 42.408 192.637 37.7036C201.816 45.0105 207.703 54.3194 208.601 64.529C208.701 63.6282 208.701 62.7273 208.701 61.8265C208.8 51.4165 203.512 41.7073 194.632 34Z" fill="#27C165"/>
<path d="M89.0685 34C89.8667 33.2994 90.6649 32.6987 91.4631 31.9981C92.2614 33.2994 93.1593 34.4004 94.1571 35.5015C98.7468 40.2059 105.631 42.2079 112.416 40.306C118.503 38.6044 123.092 34 124.888 28.2946C124.589 35.3013 118.004 40.5062 111.319 42.3079C104.833 44.1096 95.3544 42.408 91.064 37.7036C81.8846 45.1106 75.9978 54.4194 75.0998 64.7292C75 63.8284 75 62.9275 75 62.0267C75 51.4165 80.2882 41.7073 89.0685 34Z" fill="#27C165"/>
<path d="M141.95 22.6531C147.637 22.6531 153.125 23.1535 158.413 24.0543C158.413 22.4529 158.613 20.8513 159.012 19.2498C153.524 18.2489 147.837 17.7484 141.95 17.7484C136.063 17.7484 130.376 18.2489 124.888 19.2498C125.287 20.8513 125.487 22.4529 125.487 24.0543C130.775 23.1535 136.363 22.6531 141.95 22.6531Z" fill="#27C165"/>
<path d="M194.382 28.5218C197.157 18.6809 191.451 8.45627 181.639 5.68436C171.826 2.91246 161.622 8.64297 158.847 18.4838C156.073 28.3247 161.778 38.5493 171.591 41.3212C181.404 44.0931 191.608 38.3626 194.382 28.5218Z" fill="#00993E"/>
<path d="M193.067 26.7722C195.752 17.2505 190.231 7.35746 180.737 4.67546C171.242 1.99345 161.369 7.53811 158.684 17.0598C156 26.5815 161.52 36.4745 171.015 39.1565C180.509 41.8385 190.382 36.2939 193.067 26.7722Z" fill="#2ECC71"/>
<path d="M176.573 36.9027C184.728 36.9027 191.34 30.2703 191.34 22.0887C191.34 13.9071 184.728 7.2746 176.573 7.2746C168.417 7.2746 161.806 13.9071 161.806 22.0887C161.806 30.2703 168.417 36.9027 176.573 36.9027Z" fill="url(#paint0_radial)"/>
<path d="M176.273 18.2851C172.282 18.2851 169.089 21.388 168.79 25.2918L173.08 26.3928L169.289 28.695C170.386 31.3976 173.08 33.2994 176.173 33.2994C180.264 33.2994 183.657 29.8962 183.657 25.7922C183.757 21.6883 180.364 18.2851 176.273 18.2851Z" fill="#2A5351"/>
<path d="M168.89 25.2917C168.89 25.492 168.79 25.5921 168.79 25.7922C168.79 26.7931 168.99 27.7942 169.389 28.695L173.18 26.3928L168.89 25.2917Z" fill="white"/>
<path d="M111.795 40.8953C121.608 38.1235 127.313 27.8988 124.539 18.058C121.764 8.21712 111.56 2.48662 101.747 5.25852C91.9347 8.03043 86.2291 18.2551 89.0037 28.0959C91.7782 37.9368 101.982 43.6673 111.795 40.8953Z" fill="#00993E"/>
<path d="M111.868 39.898C121.361 37.2104 126.884 27.3116 124.205 17.7884C121.526 8.26509 111.659 2.72367 102.166 5.41125C92.6732 8.09881 87.1494 17.9976 89.8284 27.5209C92.5075 37.0441 102.375 42.5855 111.868 39.898Z" fill="#2ECC71"/>
<path d="M107.727 36.9027C115.882 36.9027 122.494 30.2703 122.494 22.0887C122.494 13.9071 115.882 7.2746 107.727 7.2746C99.5712 7.2746 92.9598 13.9071 92.9598 22.0887C92.9598 30.2703 99.5712 36.9027 107.727 36.9027Z" fill="url(#paint1_radial)"/>
<path d="M107.427 18.2851C103.436 18.2851 100.244 21.388 99.9442 25.2918L104.235 26.3928L100.443 28.695C101.541 31.3976 104.235 33.2994 107.328 33.2994C111.418 33.2994 114.811 29.8962 114.811 25.7922C114.911 21.6883 111.618 18.2851 107.427 18.2851Z" fill="#2A5351"/>
<path d="M100.044 25.2917C100.044 25.492 99.9442 25.5921 99.9442 25.7922C99.9442 26.7931 100.144 27.7942 100.543 28.695L104.334 26.3928L100.044 25.2917Z" fill="white"/>
<path d="M136.363 38.3041C137.189 38.3041 137.859 37.856 137.859 37.3032C137.859 36.7504 137.189 36.3022 136.363 36.3022C135.536 36.3022 134.866 36.7504 134.866 37.3032C134.866 37.856 135.536 38.3041 136.363 38.3041Z" fill="#44A85F"/>
<path d="M146.34 38.3041C147.167 38.3041 147.837 37.856 147.837 37.3032C147.837 36.7504 147.167 36.3022 146.34 36.3022C145.514 36.3022 144.844 36.7504 144.844 37.3032C144.844 37.856 145.514 38.3041 146.34 38.3041Z" fill="#44A85F"/>
<path opacity="0.17" d="M187.648 53.1182C189.797 53.1182 191.539 51.3704 191.539 49.2145C191.539 47.0585 189.797 45.3108 187.648 45.3108C185.499 45.3108 183.757 47.0585 183.757 49.2145C183.757 51.3704 185.499 53.1182 187.648 53.1182Z" fill="#006D2C"/>
<path opacity="0.17" d="M201.15 48.6329C202.921 48.0198 203.861 46.0825 203.25 44.3057C202.639 42.5289 200.708 41.5856 198.937 42.1987C197.165 42.8119 196.225 44.7492 196.836 46.5259C197.447 48.3027 199.379 49.2461 201.15 48.6329Z" fill="#006D2C"/>
<path opacity="0.17" d="M201.711 59.2351C203.013 58.7843 203.704 57.3597 203.255 56.0533C202.805 54.7468 201.385 54.0533 200.083 54.5041C198.781 54.9549 198.09 56.3794 198.539 57.6858C198.988 58.9922 200.408 59.6859 201.711 59.2351Z" fill="#006D2C"/>
<path opacity="0.17" d="M96.8511 52.1173C99.0002 52.1173 100.742 50.3695 100.742 48.2135C100.742 46.0576 99.0002 44.3099 96.8511 44.3099C94.702 44.3099 92.9598 46.0576 92.9598 48.2135C92.9598 50.3695 94.702 52.1173 96.8511 52.1173Z" fill="#006D2C"/>
<path opacity="0.17" d="M87.5129 45.3112C88.1252 43.5349 87.1856 41.5989 85.4141 40.987C83.6426 40.3751 81.71 41.3191 81.0976 43.0954C80.4853 44.8717 81.4249 46.8078 83.1964 47.4197C84.9679 48.0315 86.9005 47.0876 87.5129 45.3112Z" fill="#006D2C"/>
<path opacity="0.17" d="M86.5162 56.5892C86.9656 55.2828 86.2742 53.8583 84.9719 53.4075C83.6697 52.9567 82.2497 53.6503 81.8003 54.9567C81.3509 56.2631 82.0423 57.6877 83.3446 58.1385C84.6468 58.5893 86.0668 57.8957 86.5162 56.5892Z" fill="#006D2C"/>
<path opacity="0.17" d="M143.52 25.7551C144.137 24.773 143.843 23.475 142.864 22.8559C141.885 22.237 140.591 22.5314 139.974 23.5135C139.357 24.4957 139.651 25.7936 140.63 26.4126C141.609 27.0315 142.902 26.7372 143.52 25.7551Z" fill="#006D2C"/>
<path opacity="0.17" d="M134.866 22.553C137.061 22.553 138.857 20.7512 138.857 18.5491C138.857 18.2489 138.857 18.0487 138.757 17.7484C136.063 17.8485 133.469 18.0487 130.875 18.3489C130.875 18.449 130.875 18.449 130.875 18.5491C130.875 20.8513 132.671 22.553 134.866 22.553Z" fill="#006D2C"/>
<path opacity="0.17" d="M148.835 22.553C151.03 22.553 152.826 20.7512 152.826 18.5491C152.826 18.449 152.826 18.449 152.826 18.3489C150.232 18.0487 147.637 17.8485 144.943 17.7484C144.943 17.9486 144.844 18.2489 144.844 18.5491C144.844 20.8513 146.64 22.553 148.835 22.553Z" fill="#006D2C"/>
<path d="M194.133 72C195.131 70.6243 196.029 69.1502 196.727 67.578C196.727 67.578 176.772 55 143.147 55C107.627 55 87.971 66.6937 87.971 66.6937C88.9687 68.5607 90.2658 70.3294 91.6627 72H194.133Z" fill="url(#paint2_linear)"/>
<path d="M200.253 69.7455C200.544 69.1497 199.215 67.8979 197.285 66.9495C195.354 66.0011 193.554 65.7152 193.263 66.311C192.972 66.9068 194.301 68.1585 196.231 69.107C198.161 70.0554 199.962 70.3413 200.253 69.7455Z" fill="#00993E"/>
<path d="M195.031 72C196.029 70.5715 196.827 69.1429 197.426 67.7143L195.73 67C195.031 68.7347 194.034 70.3674 192.736 72H195.031Z" fill="#00993E"/>
<path d="M92.7602 72C91.1638 70.1695 89.7669 68.2373 88.6694 66L86.9732 66.9152C87.8712 68.644 89.0685 70.3729 90.2658 72H92.7602Z" fill="#00993E"/>
<path d="M88.5281 67.7711C90.4582 66.8226 91.787 65.5708 91.4961 64.975C91.2052 64.3793 89.4048 64.6651 87.4747 65.6135C85.5446 66.5619 84.2157 67.8138 84.5066 68.4095C84.7975 69.0053 86.598 68.7194 88.5281 67.7711Z" fill="#00993E"/>
<path d="M241.807 84.0784C243.511 79.885 246.226 73.3407 247.224 72H241.724C243.224 70.4895 245.224 69.0281 249.225 67.0141C252.803 65.2126 256.226 65 259.227 65C266.233 65 270.228 70.0351 271.437 72.0492C272.298 73.484 275.674 78.8225 277.545 81.7748C279.133 81.6611 280.675 82.3827 281.477 83.7805C282.627 85.7864 281.817 88.4254 279.668 89.6747C277.519 90.9241 274.844 90.3108 273.694 88.3048C273.017 87.1245 273.019 85.7251 273.573 84.5185L268 78C264.977 74 261.477 75.5 262.477 80L264.796 91.4246C266.552 91.7976 268.008 93.0488 268.477 94.8116C269.161 97.3822 267.487 100.067 264.738 100.809C261.989 101.551 259.206 100.068 258.522 97.4975C258.098 95.9056 258.579 94.2698 259.659 93.0788L256.5 81.7748C255.5 77.5 252 77.5 251 79L246.113 86.8811C246.162 87.0106 246.205 87.1436 246.241 87.28C246.866 89.6299 245.336 92.0846 242.823 92.7626C240.31 93.4406 237.765 92.0853 237.14 89.7354C236.514 87.3854 238.045 84.9308 240.558 84.2527C240.976 84.1399 241.396 84.0834 241.807 84.0784Z" fill="#2ECC71"/>
<path d="M40.1932 84.0784C38.4893 79.885 35.7742 73.3407 34.7755 72H40.2765C38.7762 70.4895 36.7759 69.0281 32.7752 67.0141C29.1969 65.2126 25.774 65 22.7735 65C15.7673 65 11.7716 70.0351 10.5628 72.0492C9.70176 73.484 6.32573 78.8225 4.45494 81.7748C2.86652 81.6611 1.32469 82.3827 0.523142 83.7805C-0.627101 85.7864 0.182721 88.4254 2.33193 89.6747C4.48114 90.9241 7.15587 90.3108 8.30612 88.3048C8.98292 87.1245 8.98112 85.7251 8.42716 84.5185L14 78C17.0231 74 20.5231 75.5 19.5231 80L17.2037 91.4246C15.4481 91.7976 13.9917 93.0488 13.5226 94.8116C12.8385 97.3822 14.5126 100.067 17.2617 100.809C20.0108 101.551 22.7939 100.068 23.478 97.4975C23.9016 95.9056 23.4209 94.2698 22.3405 93.0788L25.5 81.7748C26.5 77.5 30 77.5 31 79L35.8869 86.8811C35.8381 87.0106 35.7953 87.1436 35.759 87.28C35.1336 89.6299 36.664 92.0846 39.1772 92.7626C41.6904 93.4406 44.2348 92.0853 44.8601 89.7354C45.4855 87.3854 43.9551 84.9308 41.4419 84.2527C41.0235 84.1399 40.6043 84.0834 40.1932 84.0784Z" fill="#2ECC71"/>
<defs>
<radialGradient id="paint0_radial" cx="0" cy="0" r="1" gradientUnits="userSpaceOnUse" gradientTransform="translate(176.532 22.1263) scale(14.7519 14.799)">
<stop offset="0.5167" stop-color="white"/>
<stop offset="0.737" stop-color="#F7F7F7"/>
<stop offset="1" stop-color="#E6E7E8"/>
</radialGradient>
<radialGradient id="paint1_radial" cx="0" cy="0" r="1" gradientUnits="userSpaceOnUse" gradientTransform="translate(107.747 22.1263) rotate(180) scale(14.7519 14.799)">
<stop offset="0.5167" stop-color="white"/>
<stop offset="0.737" stop-color="#F7F7F7"/>
<stop offset="1" stop-color="#E6E7E8"/>
</radialGradient>
<linearGradient id="paint2_linear" x1="142.289" y1="72" x2="142.289" y2="54.9914" gradientUnits="userSpaceOnUse">
<stop stop-color="#3BE07E"/>
<stop offset="0.0338869" stop-color="#3ADF7D"/>
<stop offset="0.5522" stop-color="#31D174"/>
<stop offset="1" stop-color="#2ECC71"/>
</linearGradient>
</defs>
</svg>
